# xmcd
#
# Track frame offsets: 
#        182
#        9317
#        23072
#        35262
#        48710
#        61067
#        72617
#        86332
#        99162
#        110325
#        121497
#        132800
#        143822
#        160062
#        172830
#        181860
#        192580
#        204402
#        215410
#        225745
#        241185
#        250847
#        262657
#        272167
#        285835
#
# Disc length: 4073 seconds
#
# Revision: 2
# Processed by: cddbd v1.5.1PL2 Copyright (c) Steve Scherf et al.
# Submitted via: ExactAudioCopy v0.95b4
#
DISCID=4a0fe719
DTITLE=Frankie Laine - The Best of Frankie Laine
DYEAR=1900
DGENRE=
TTITLE0=Rawhide
TTITLE1=Riders in the Sky
TTITLE2=Jezebel
TTITLE3=Jealousy
TTITLE4=High Noon
TTITLE5=Mule Train
TTITLE6=Memories in Gold
TTITLE7=The Cry of the Wild Goose
TTITLE8=I Believe
TTITLE9=North to Alaska
TTITLE10=Along the Navajo Trail
TTITLE11=The 3.10 to Yuma
TTITLE12=Fever
TTITLE13=Moonlight Gambler
TTITLE14=Your Cheatin' Heart
TTITLE15=Hey Good Lookin'
TTITLE16=Wanted Man
TTITLE17=Call of the Wild
TTITLE18=The Hanging Tree
TTITLE19=Tumbling Tumbleweeds
TTITLE20=Gunfight at the OK Corral
TTITLE21=That's My Desire
TTITLE22=Blazing Saddles
TTITLE23=Cool Water
TTITLE24=You Gave Me a Mountain
EXTD=
EXTT0=
EXTT1=
EXTT2=
EXTT3=
EXTT4=
EXTT5=
EXTT6=
EXTT7=
EXTT8=
EXTT9=
EXTT10=
EXTT11=
EXTT12=
EXTT13=
EXTT14=
EXTT15=
EXTT16=
EXTT17=
EXTT18=
EXTT19=
EXTT20=
EXTT21=
EXTT22=
EXTT23=
EXTT24=
PLAYORDER=
